<?xml version="1.0" encoding="utf-8"?>
<!-- Generator: Adobe Illustrator 22.0.0, SVG Export Plug-In . SVG Version: 6.00 Build 0)  -->
<svg version="1.1" id="Layer_1" xmlns="http://www.w3.org/2000/svg" xmlns:xlink="http://www.w3.org/1999/xlink" x="0px" y="0px"
	 viewBox="0 0 20 20" style="enable-background:new 0 0 20 20;" xml:space="preserve">
<path d="M0,0v20h20V0H0z M7.1,14.8h-2V8.2h2V14.8z M6.2,7.5L6.2,7.5C5.5,7.5,5,7,5,6.4c0-0.6,0.5-1.1,1.2-1.1c0.7,0,1.2,0.5,1.2,1.1
	C7.4,7,6.9,7.5,6.2,7.5z M15,14.8h-2v-3.5c0-0.9-0.4-1.4-1.2-1.4c-0.6,0-1.1,0.4-1.2,0.8c-0.1,0.1-0.2,0.3-0.2,0.5v3.6h-2
	c0,0,0-5.9,0-6.6h2v1c0.7-0.4,0.9-1.1,2-1.1c1.4,0,2.6,0.9,2.6,2.9L15,14.8L15,14.8z"/>
</svg>
