<?xml version="1.0" encoding="utf-8"?>
<!-- Generator: Adobe Illustrator 22.0.0, SVG Export Plug-In . SVG Version: 6.00 Build 0)  -->
<svg version="1.1" id="Layer_1" xmlns="http://www.w3.org/2000/svg" xmlns:xlink="http://www.w3.org/1999/xlink" x="0px" y="0px"
	 viewBox="0 0 48.6 113.4" style="enable-background:new 0 0 48.6 113.4;" xml:space="preserve">
<g>
	<g>
		<rect x="1722.5" y="1156.4" transform="matrix(0.5 -0.866 0.866 0.5 23.1703 2552.8784)" width="1000" height="200"/>
	</g>
	<g>
		<rect x="1517.3" y="2073.3" transform="matrix(0.5 -0.866 0.866 0.5 -876.8261 2777.8755)" width="900" height="150"/>
	</g>
	<g>
		<rect x="1318.9" y="2878.6" transform="matrix(0.5 -0.866 0.866 0.5 -1676.8224 2952.873)" width="800" height="100"/>
	</g>
</g>
<g>
	<g>
		<rect x="11.1" y="17.2" transform="matrix(0.5 -0.866 0.866 0.5 -2.0131 39.8643)" width="44.9" height="9"/>
	</g>
	<g>
		<rect x="1.9" y="58.3" transform="matrix(0.5 -0.866 0.866 0.5 -42.401 49.9612)" width="40.4" height="6.7"/>
	</g>
	<g>
		<rect x="-7" y="94.5" transform="matrix(0.5 -0.866 0.866 0.5 -78.3014 57.8144)" width="35.9" height="4.5"/>
	</g>
</g>
</svg>
