<?xml version="1.0" encoding="utf-8"?>
<!-- Generator: Adobe Illustrator 22.0.0, SVG Export Plug-In . SVG Version: 6.00 Build 0)  -->
<svg version="1.1" id="Layer_1" xmlns="http://www.w3.org/2000/svg" xmlns:xlink="http://www.w3.org/1999/xlink" x="0px" y="0px"
	 viewBox="0 0 20 20" style="enable-background:new 0 0 20 20;" xml:space="preserve">
<path d="M0,0v20h20V0H0z M10.8,12.2c-0.6,0-1.2-0.3-1.4-0.7c0,0-0.3,1.3-0.4,1.6c-0.2,0.9-1,1.8-1,1.9c0,0.1-0.1,0-0.1,0
	c0-0.1-0.2-1.3,0-2.2c0.1-0.5,0.7-3.1,0.7-3.1S8.4,9.3,8.4,8.7c0-0.9,0.5-1.5,1.1-1.5c0.5,0,0.8,0.4,0.8,0.9c0,0.5-0.3,1.3-0.5,2
	c-0.1,0.6,0.3,1.1,0.9,1.1c1.1,0,1.8-1.4,1.8-3.1c0-1.3-0.8-2.2-2.4-2.2C8.3,6,7.2,7.3,7.2,8.7c0,0.5,0.1,0.9,0.4,1.1
	C7.7,10,7.7,10,7.7,10.2c0,0.1-0.1,0.4-0.1,0.5c0,0.1-0.2,0.2-0.3,0.1c-0.8-0.3-1.2-1.2-1.2-2.2C6.1,7,7.5,5,10.2,5
	c2.2,0,3.6,1.6,3.6,3.3C13.9,10.5,12.6,12.2,10.8,12.2z"/>
</svg>
